<?xml version="1.0" encoding="UTF-8" standalone="no"?>
<!-- Created with Inkscape (http://www.inkscape.org/) -->

<svg
   xmlns:dc="http://purl.org/dc/elements/1.1/"
   xmlns:cc="http://creativecommons.org/ns#"
   xmlns:rdf="http://www.w3.org/1999/02/22-rdf-syntax-ns#"
   xmlns:svg="http://www.w3.org/2000/svg"
   xmlns="http://www.w3.org/2000/svg"
   xmlns:xlink="http://www.w3.org/1999/xlink"
   xmlns:sodipodi="http://sodipodi.sourceforge.net/DTD/sodipodi-0.dtd"
   xmlns:inkscape="http://www.inkscape.org/namespaces/inkscape"
   width="393.30725"
   height="393.30725"
   id="svg1"
   sodipodi:version="0.32"
   inkscape:version="0.47 r22583"
   sodipodi:docname="aeskulap.svg"
   version="1.1">
  <defs
     id="defs3">
    <inkscape:perspective
       sodipodi:type="inkscape:persp3d"
       inkscape:vp_x="0 : 526.18109 : 1"
       inkscape:vp_y="0 : 1000 : 0"
       inkscape:vp_z="744.09448 : 526.18109 : 1"
       inkscape:persp3d-origin="372.04724 : 350.78739 : 1"
       id="perspective25" />
    <linearGradient
       id="linearGradient1891">
      <stop
         style="stop-color:#d5bb00;stop-opacity:1.0000000;"
         offset="0.0000000"
         id="stop1892" />
      <stop
         style="stop-color:#d59c00;stop-opacity:1.0000000;"
         offset="1.0000000"
         id="stop1893" />
    </linearGradient>
    <linearGradient
       gradientTransform="matrix(1.5539,0,0,0.643542,-1032.482,-655.0804)"
       gradientUnits="userSpaceOnUse"
       id="linearGradient1078"
       inkscape:collect="always"
       x1="213.82799"
       x2="214.59154"
       xlink:href="#linearGradient1702"
       y1="183.48366"
       y2="463.47311" />
    <linearGradient
       gradientUnits="userSpaceOnUse"
       id="linearGradient1077"
       inkscape:collect="always"
       x1="522.94183"
       x2="522.94183"
       xlink:href="#linearGradient1697"
       y1="469.49918"
       y2="505.0845" />
    <linearGradient
       gradientUnits="userSpaceOnUse"
       id="linearGradient1076"
       inkscape:collect="always"
       x1="520.57166"
       x2="520.57166"
       xlink:href="#linearGradient1697"
       y1="506.28723"
       y2="466.2785" />
    <radialGradient
       cx="522.89532"
       cy="481.86633"
       fx="522.89911"
       fy="473.03323"
       gradientUnits="userSpaceOnUse"
       id="radialGradient1706"
       inkscape:collect="always"
       r="15.301119"
       xlink:href="#linearGradient1702" />
    <linearGradient
       id="linearGradient1697">
      <stop
         id="stop1698"
         offset="0.0000000"
         style="stop-color:#0e56db;stop-opacity:1.0000000;" />
      <stop
         id="stop1699"
         offset="1.0000000"
         style="stop-color:#071176;stop-opacity:1.0000000;" />
    </linearGradient>
    <linearGradient
       id="linearGradient1702">
      <stop
         id="stop1703"
         offset="0.0000000"
         style="stop-color:#ffffff;stop-opacity:0.69072163;" />
      <stop
         id="stop1704"
         offset="1.0000000"
         style="stop-color:#ffffff;stop-opacity:0.0000000;" />
    </linearGradient>
  </defs>
  <sodipodi:namedview
     id="base"
     pagecolor="#ffffff"
     bordercolor="#666666"
     borderopacity="1.0"
     inkscape:pageopacity="0.0"
     inkscape:pageshadow="2"
     inkscape:zoom="0.43415836"
     inkscape:cx="124.74665"
     inkscape:cy="77.256807"
     inkscape:current-layer="svg1"
     inkscape:window-width="1005"
     inkscape:window-height="855"
     inkscape:window-x="0"
     inkscape:window-y="49"
     showgrid="false"
     inkscape:window-maximized="0" />
  <metadata
     id="metadata4">
    <rdf:RDF>
      <cc:Work
         rdf:about="">
        <dc:format>image/svg+xml</dc:format>
        <dc:type
           rdf:resource="http://purl.org/dc/dcmitype/StillImage" />
      </cc:Work>
    </rdf:RDF>
  </metadata>
  <g
     inkscape:label="Layer 1"
     inkscape:groupmode="layer"
     id="layer1"
     transform="translate(-180.51288,-323.06889)" />
  <g
     id="g1888"
     inkscape:groupmode="layer"
     inkscape:label="Layer 1"
     transform="translate(894.85812,554.69411)">
    <path
       d="m 544.06634,487.06226 c 0,11.47854 -9.3052,20.78374 -20.78375,20.78374 -11.47854,0 -20.78374,-9.3052 -20.78374,-20.78374 0,-11.47855 9.3052,-20.78375 20.78374,-20.78375 11.47855,0 20.78375,9.3052 20.78375,20.78375 z"
       id="path1070"
       sodipodi:cx="523.28259"
       sodipodi:cy="487.06226"
       sodipodi:rx="20.783747"
       sodipodi:ry="20.783747"
       sodipodi:type="arc"
       style="fill:url(#linearGradient1076);fill-opacity:1;fill-rule:nonzero;stroke:url(#linearGradient1077);stroke-width:1.3644532;stroke-linecap:round;stroke-linejoin:round;stroke-miterlimit:4;stroke-opacity:1;stroke-dashoffset:0"
       transform="matrix(9.161179,0,0,9.161179,-5492.09,-4820.105)"
       inkscape:export-filename="/home/pipelka/workspace/aeskulap/pixmaps/aeskulap.png"
       inkscape:export-xdpi="14.650000"
       inkscape:export-ydpi="14.650000" />
    <path
       d="m -559.89071,-408.19438 c 44.36718,-0.96679 -12.40014,-123.15286 -135.68099,-123.80277 -134.56152,-0.68712 -162.09595,110.96136 -140.71946,112.99722 0,0 36.86417,5.06261 71.93958,14.85606 56.47265,15.93081 125.54913,-13.06922 152.76874,-17.28358 30.3425,-4.69788 47.37343,15.39242 51.69213,13.23307 z"
       id="path1713"
       sodipodi:nodetypes="cccccc"
       style="opacity:0.9;fill:url(#linearGradient1078);fill-opacity:1;fill-rule:evenodd;stroke:none"
       inkscape:export-filename="/home/pipelka/workspace/aeskulap/pixmaps/aeskulap.png"
       inkscape:export-xdpi="14.650000"
       inkscape:export-ydpi="14.650000" />
  </g>
  <path
     d="m 195.72064,330.8591 c -10.87875,-19.53022 -11.30593,-30.36933 -1.80579,-45.8189 l 5.39126,-8.7675 -11.71861,-9.21154 c -18.00589,-14.15373 -23.98308,-23.25467 -23.98308,-36.51711 0,-10.90659 6.32116,-24.93283 11.23635,-24.93283 1.1787,0 2.14304,-1.24065 2.14304,-2.757 0,-1.51634 -5.76983,-3.76153 -12.82192,-4.98929 -16.15205,-2.81209 -24.91132,-9.01416 -25.05221,-17.7384 -0.094,-5.82099 8.74429,-12.59765 26.05091,-19.97424 13.33749,-5.68483 18.20235,-8.99091 16.04073,-10.90105 -1.70641,-1.50789 -6.36377,-1.90764 -10.34974,-0.88832 -4.17092,1.06661 -7.24716,0.5498 -7.24716,-1.21753 0,-1.68896 -4.76638,-3.11694 -10.59202,-3.1733 -19.70838,-0.19066 -23.12801,-0.54823 -25.59169,-2.67594 -1.35198,-1.16761 -5.4102,-2.44744 -9.01828,-2.84407 -3.60809,-0.39662 -8.04648,-2.79811 -9.86312,-5.33665 -2.91736,-4.07668 -2.04358,-4.87357 7.48441,-6.8258 14.55443,-2.98213 28.57564,-11.96233 38.76819,-24.82997 18.16831,-22.936636 23.74725,-24.506636 28.22163,-7.941966 2.18024,8.071516 11.22387,16.954206 13.84021,13.593936 0.50372,-0.6469 -0.92792,-5.96029 -3.18138,-11.807536 -3.87469,-10.05396 -3.89135,-11.07038 -0.30692,-18.71482 4.55687,-9.71834 14.54777,-10.90586 20.0661,-2.38504 4.7137,7.27836 4.69633,15.62794 -0.0477,22.95315 -5.72583,8.841266 -0.55444,14.462186 6.9685,7.574166 3.12908,-2.86499 5.68927,-6.578976 5.68927,-8.253276 0,-1.67431 2.02989,-5.88076 4.5109,-9.34768 5.41896,-7.57239 9.13515,-5.53061 24.47777,13.448826 11.85672,14.66723 23.79857,22.51728 38.76248,25.48077 9.77577,1.93602 10.53987,2.64395 7.47558,6.92596 -1.87725,2.62324 -6.27548,5.08847 -9.77381,5.47829 -3.49833,0.38982 -8.11888,1.78639 -10.26792,3.1035 -2.149,1.31711 -6.35221,1.53727 -9.34039,0.48924 -2.98824,-1.04803 -6.09932,-0.3992 -6.91356,1.44183 -0.90152,2.03839 -4.78941,2.56614 -9.94238,1.34959 -5.2499,-1.23944 -9.03797,-0.69521 -9.97957,1.43376 -0.91117,2.06019 -4.46507,2.65884 -8.8931,1.49804 -4.23393,-1.10993 -7.98539,-0.55421 -8.80755,1.30471 -0.86112,1.94704 5.03857,5.89451 14.79644,9.90027 19.52343,8.01464 26.26317,13.58276 26.26317,21.69758 0,8.47592 -7.95678,14.82676 -21.74152,17.35333 -6.43882,1.18016 -11.70695,2.83165 -11.70695,3.66996 0,0.83833 3.01035,6.31533 6.68969,12.17112 7.28589,11.59574 8.0484,16.60877 4.10595,26.99406 -2.99486,7.88897 -7.2783,12.54567 -23.62294,25.68146 l -11.85451,9.52714 4.59699,7.40664 c 2.52833,4.07366 5.15517,11.00416 5.83745,15.40112 0.68227,4.39696 1.63548,9.77859 2.11832,11.95918 1.18633,5.35786 -14.22467,28.79736 -18.79153,28.58121 -2.00359,-0.0948 -5.74757,-3.95091 -8.31999,-8.56908 z m 23.63128,-22.17736 c 0,-6.95439 -8.3724,-25.16972 -11.56884,-25.16972 -0.99583,0 -1.81055,11.96761 -1.81055,26.59469 l 0,26.5947 6.6897,-10.64689 c 3.67934,-5.85579 6.68969,-13.67354 6.68969,-17.37278 z m -15.76606,3.46967 c -0.0862,-9.75331 -0.94529,-20.53771 -1.90905,-23.96535 -1.60219,-5.69783 -2.16637,-5.29716 -6.58168,4.67405 -5.14135,11.61082 -4.8435,20.7762 1.09179,33.59664 4.92782,10.64416 7.57424,5.52748 7.39894,-14.30534 z m -2.07312,-73.82185 c 0,-29.43402 -0.0315,-29.60231 -5.52966,-29.60231 -9.80414,0 -23.39447,9.46172 -24.79569,17.26299 -2.26973,12.63707 1.24967,19.69839 15.40659,30.91182 7.59209,6.01353 14.05466,10.95532 14.36125,10.98175 0.30663,0.0264 0.55751,-13.27299 0.55751,-29.55425 z m 21.4094,18.39623 c 14.76635,-10.93547 16.49887,-13.25601 16.49887,-22.09866 0,-12.24394 -3.93228,-19.17004 -12.84818,-22.63013 -18.14779,-7.04281 -18.3704,-6.74255 -18.3704,24.77454 0,15.42436 0.85398,28.04429 1.89778,28.04429 1.04376,0 6.81365,-3.64052 12.82193,-8.09004 z m -22.24562,-70.20027 c -0.76654,-5.35568 -1.39368,-16.57339 -1.39368,-24.92825 0,-8.35486 -0.99165,-15.19066 -2.20365,-15.19066 -1.21195,0 -1.96458,3.02445 -1.67239,6.72099 0.47637,6.02751 -1.76965,7.56058 -21.76781,14.85819 -29.89977,10.91084 -29.89977,15.62389 0,22.49751 30.67848,7.05264 28.65574,7.34873 27.03753,-3.95778 z m 43.0214,2.46039 c 7.87133,-1.99589 14.70786,-5.296 15.19224,-7.33355 0.86933,-3.65665 -20.2177,-13.82448 -37.8658,-18.25831 -8.7311,-2.19355 -10.86555,-6.49254 -4.83035,-9.72879 2.84365,-1.52483 2.95229,-2.40725 0.55751,-4.52854 -5.64968,-5.00447 -6.31919,-2.63226 -6.31919,22.38907 l 0,25.11919 9.47706,-2.01508 c 5.21237,-1.1083 15.91721,-3.64809 23.78853,-5.64399 z"
     id="path1912"
     style="opacity:0.37769787;fill:#161618;fill-opacity:1;fill-rule:nonzero"
     inkscape:export-filename="/home/pipelka/workspace/aeskulap/pixmaps/aeskulap.png"
     inkscape:export-xdpi="14.650000"
     inkscape:export-ydpi="14.650000" />
  <path
     d="m 185.72064,323.3591 c -10.87875,-19.53022 -11.30593,-30.36933 -1.80579,-45.8189 l 5.39126,-8.7675 -11.71861,-9.21154 c -18.00589,-14.15373 -23.98308,-23.25467 -23.98308,-36.51711 0,-10.90659 6.32116,-24.93283 11.23635,-24.93283 1.1787,0 2.14304,-1.24065 2.14304,-2.757 0,-1.51634 -5.76983,-3.76153 -12.82192,-4.98929 -16.15205,-2.81209 -24.91132,-9.01416 -25.05221,-17.7384 -0.094,-5.82099 8.74429,-12.59765 26.05091,-19.97424 13.33749,-5.68483 18.20235,-8.99091 16.04073,-10.90105 -1.70641,-1.50789 -6.36377,-1.90764 -10.34974,-0.88832 -4.17092,1.06661 -7.24716,0.5498 -7.24716,-1.21753 0,-1.68896 -4.76638,-3.11694 -10.59202,-3.1733 -19.70838,-0.19066 -23.12801,-0.54823 -25.59169,-2.67594 -1.35198,-1.16761 -5.4102,-2.44744 -9.01828,-2.84407 -3.60809,-0.39662 -8.04648,-2.79811 -9.863116,-5.33665 -2.91736,-4.07668 -2.04358,-4.87357 7.484406,-6.8258 14.55443,-2.98213 28.57564,-11.96233 38.76819,-24.829966 18.16831,-22.93664 23.74725,-24.50664 28.22163,-7.94197 2.18024,8.07152 11.22387,16.954206 13.84021,13.59394 0.50372,-0.6469 -0.92792,-5.96029 -3.18138,-11.80754 -3.87469,-10.05396 -3.89135,-11.07038 -0.30692,-18.71482 4.55687,-9.71834 14.54777,-10.90586 20.0661,-2.38504 4.7137,7.27836 4.69633,15.62794 -0.0477,22.95315 -5.72583,8.84127 -0.55444,14.462186 6.9685,7.57417 3.12908,-2.86499 5.68927,-6.57898 5.68927,-8.25328 0,-1.67431 2.02989,-5.88076 4.5109,-9.34768 5.41896,-7.57239 9.13515,-5.53061 24.47777,13.44883 11.85672,14.667226 23.79857,22.517276 38.76248,25.480766 9.77577,1.93602 10.53987,2.64395 7.47558,6.92596 -1.87725,2.62324 -6.27548,5.08847 -9.77381,5.47829 -3.49833,0.38982 -8.11888,1.78639 -10.26792,3.1035 -2.149,1.31711 -6.35221,1.53727 -9.34039,0.48924 -2.98824,-1.04803 -6.09932,-0.3992 -6.91356,1.44183 -0.90152,2.03839 -4.78941,2.56614 -9.94238,1.34959 -5.2499,-1.23944 -9.03797,-0.69521 -9.97957,1.43376 -0.91117,2.06019 -4.46507,2.65884 -8.8931,1.49804 -4.23393,-1.10993 -7.98539,-0.55421 -8.80755,1.30471 -0.86112,1.94704 5.03857,5.89451 14.79644,9.90027 19.52343,8.01464 26.26317,13.58276 26.26317,21.69758 0,8.47592 -7.95678,14.82676 -21.74152,17.35333 -6.43882,1.18016 -11.70695,2.83165 -11.70695,3.66996 0,0.83833 3.01035,6.31533 6.68969,12.17112 7.28589,11.59574 8.0484,16.60877 4.10595,26.99406 -2.99486,7.88897 -7.2783,12.54567 -23.62294,25.68146 l -11.85451,9.52714 4.59699,7.40664 c 2.52833,4.07366 5.15517,11.00416 5.83745,15.40112 0.68227,4.39696 1.63548,9.77859 2.11832,11.95918 1.18633,5.35786 -14.22467,28.79736 -18.79153,28.58121 -2.00359,-0.0948 -5.74757,-3.95091 -8.31999,-8.56908 z m 23.63128,-22.17736 c 0,-6.95439 -8.3724,-25.16972 -11.56884,-25.16972 -0.99583,0 -1.81055,11.96761 -1.81055,26.59469 l 0,26.5947 6.6897,-10.64689 c 3.67934,-5.85579 6.68969,-13.67354 6.68969,-17.37278 z m -15.76606,3.46967 c -0.0862,-9.75331 -0.94529,-20.53771 -1.90905,-23.96535 -1.60219,-5.69783 -2.16637,-5.29716 -6.58168,4.67405 -5.14135,11.61082 -4.8435,20.7762 1.09179,33.59664 4.92782,10.64416 7.57424,5.52748 7.39894,-14.30534 z m -2.07312,-73.82185 c 0,-29.43402 -0.0315,-29.60231 -5.52966,-29.60231 -9.80414,0 -23.39447,9.46172 -24.79569,17.26299 -2.26973,12.63707 1.24967,19.69839 15.40659,30.91182 7.59209,6.01353 14.05466,10.95532 14.36125,10.98175 0.30663,0.0264 0.55751,-13.27299 0.55751,-29.55425 z m 21.4094,18.39623 c 14.76635,-10.93547 16.49887,-13.25601 16.49887,-22.09866 0,-12.24394 -3.93228,-19.17004 -12.84818,-22.63013 -18.14779,-7.04281 -18.3704,-6.74255 -18.3704,24.77454 0,15.42436 0.85398,28.04429 1.89778,28.04429 1.04376,0 6.81365,-3.64052 12.82193,-8.09004 z m -22.24562,-70.20027 c -0.76654,-5.35568 -1.39368,-16.57339 -1.39368,-24.92825 0,-8.35486 -0.99165,-15.19066 -2.20365,-15.19066 -1.21195,0 -1.96458,3.02445 -1.67239,6.72099 0.47637,6.02751 -1.76965,7.56058 -21.76781,14.85819 -29.89977,10.91084 -29.89977,15.62389 0,22.49751 30.67848,7.05264 28.65574,7.34873 27.03753,-3.95778 z m 43.0214,2.46039 c 7.87133,-1.99589 14.70786,-5.296 15.19224,-7.33355 0.86933,-3.65665 -20.2177,-13.82448 -37.8658,-18.25831 -8.7311,-2.19355 -10.86555,-6.49254 -4.83035,-9.72879 2.84365,-1.52483 2.95229,-2.40725 0.55751,-4.52854 -5.64968,-5.00447 -6.31919,-2.63226 -6.31919,22.38907 l 0,25.11919 9.47706,-2.01508 c 5.21237,-1.1083 15.91721,-3.64809 23.78853,-5.64399 z"
     id="path1103"
     style="fill:#ffffff;fill-opacity:1;fill-rule:nonzero"
     inkscape:export-filename="/home/pipelka/workspace/aeskulap/pixmaps/aeskulap.png"
     inkscape:export-xdpi="14.650000"
     inkscape:export-ydpi="14.650000" />
</svg>
